<svg aria-hidden="true" style="position:absolute;width:0;height:0" xmlns="http://www.w3.org/2000/svg" overflow="hidden"><defs><symbol id="icon-certification" viewBox="0 0 32 32"><path d="M24.67 22.976c1.553 0 2.817-1.264 2.817-2.817s-1.264-2.817-2.817-2.817-2.817 1.264-2.817 2.817a2.82 2.82 0 002.817 2.817zm0-4.697c1.036 0 1.88.843 1.88 1.88s-.843 1.88-1.88 1.88c-1.036 0-1.88-.843-1.88-1.88s.843-1.88 1.88-1.88zm-4.662-9.583a.469.469 0 000-.938h-8.016a.469.469 0 000 .938zm-1.535 9.254a.469.469 0 00-.469-.469h-4.008a.469.469 0 000 .938h4.008c.259 0 .469-.21.469-.469zM7.515 10.168c0 .259.21.469.469.469h16.032a.469.469 0 000-.938H7.984a.469.469 0 00-.469.469zm.469 2.41h16.032a.469.469 0 000-.938H7.984a.469.469 0 000 .938zm0 1.941h16.032a.469.469 0 000-.938H7.984a.469.469 0 000 .938z"/><path d="M0 3.952v16.995a2.443 2.443 0 002.44 2.44h18.839c.032.014.064.027.097.039v6.17a.889.889 0 001.406.726l1.888-1.34 1.888 1.34c.273.194.627.218.924.065s.482-.457.482-.791v-6.17c.032-.012.065-.025.097-.039h1.5a2.443 2.443 0 002.44-2.44v-7.404a.469.469 0 00-.938 0v7.404c0 .829-.674 1.503-1.503 1.503h-.78c.047-.357-.024-.752.038-.943.09-.279.679-.71.679-1.348 0-.419-.249-.74-.449-.998-.202-.26-.228-.316-.244-.413.127-.027.256-.041.387-.041a.91.91 0 00.934-.911V7.104a.91.91 0 00-.917-.911 1.869 1.869 0 01-1.888-1.888.91.91 0 00-.912-.917H5.591a.909.909 0 00-.911.934 1.869 1.869 0 01-1.888 1.871.91.91 0 00-.917.911v10.692c0 .482.38.915.934.911 1.016 0 1.875.822 1.871 1.888a.91.91 0 00.912.917h9.315a.469.469 0 000-.938H5.618a2.812 2.812 0 00-2.805-2.805V7.129a2.806 2.806 0 002.805-2.805h20.765c.001.749.293 1.453.823 1.982s1.233.822 1.982.822v10.64c-.141 0-.28.011-.418.032-.119-.678-.625-.866-1.13-1.014-.429-.126-.432-.132-.676-.49-.183-.268-.41-.603-.803-.73-.38-.123-.753.009-1.053.116-.431.153-.447.153-.878 0-.243-.086-.533-.189-.836-.16H7.983a.469.469 0 000 .938H22.26a.839.839 0 01-.154.171c-.285.207-1.199.182-1.478.946-.166.454-.027.986-.107 1.234-.108.334-.942.898-.596 1.764h-2.831a.469.469 0 000 .938h3.429c.059.195-.01.581.037.938H2.441a1.504 1.504 0 01-1.502-1.503V3.953c0-.829.674-1.502 1.502-1.502h27.12c.828 0 1.503.674 1.503 1.502v7.404a.469.469 0 00.938 0V3.953a2.443 2.443 0 00-2.44-2.44H2.442a2.443 2.443 0 00-2.44 2.44zm23.021 25.051l-.708.503v-5.574c.171.246.37.579.708.754zm2.36-.665l-.196-.139c-.019-.014-.039-.026-.059-.038a.886.886 0 00-.971.038l-.196.139v-3.611c.941-.274.445-.284 1.422 0zm1.645 1.167l-.708-.502v-4.318c.338-.175.536-.507.708-.754zm-5.994-9.77c.396-.512.468-.712.45-1.391-.013-.486-.003-.494.248-.584.697-.249.896-.166 1.419-.936.101-.149.227-.333.314-.365.103 0 .101-.019.453.106.641.227.867.226 1.504 0 .158-.056.374-.133.45-.108.088.028.215.216.317.366.375.55.547.674 1.186.862.505.148.495.135.481.657-.018.679.053.879.45 1.391.33.425.33.422 0 .848-.453.584-.46.759-.448 1.492.009.513-.026.386-.75.64-.468.164-.639.366-.92.778-.306.45-.289.428-.768.258-.89-.315-1.016-.134-1.733.077-.285.083-.254.06-.641-.482-.606-.849-1.246-.619-1.517-.891-.066-.069-.052-.354-.048-.481.014-.541-.015-.788-.31-1.205-.441-.616-.531-.529-.14-1.034z"/></symbol><symbol id="icon-stopwatch" viewBox="0 0 32 32"><path d="M18.133 29.864c6.48 0 11.732-5.253 11.732-11.732S24.612 6.4 18.133 6.4 6.401 11.653 6.401 18.132c.007 6.477 5.256 11.725 11.732 11.732zM9.067 17.599H7.494A10.66 10.66 0 0117.599 7.494v1.573a.533.533 0 001.066 0V7.494A10.66 10.66 0 0128.77 17.599h-2.106a.533.533 0 000 1.066h2.106A10.66 10.66 0 0118.665 28.77v-1.573a.533.533 0 00-1.066 0v1.573A10.66 10.66 0 017.494 18.665h1.573a.533.533 0 000-1.066z"/><path d="M30.14 11.208a13.82 13.82 0 00-.505-.809l1.317-1.317a.534.534 0 000-.754l-3.013-3.013a.534.534 0 00-.754 0L25.866 6.63a13.785 13.785 0 00-7.199-2.35V1.067H22.4a.533.533 0 000-1.066h-8.533a.533.533 0 000 1.066H17.6v3.218A13.852 13.852 0 006.134 11.2H3.201a.533.533 0 000 1.066h3.2c.014 0 .026-.007.039-.008.192.002.37-.1.466-.267 3.393-6.201 11.171-8.478 17.372-5.085s8.478 11.171 5.085 17.372c-3.393 6.201-11.171 8.478-17.372 5.085a12.804 12.804 0 01-5.085-5.085.526.526 0 00-.465-.269c-.014 0-.026-.008-.041-.008H3.2a.533.533 0 100 1.066h2.933c3.827 6.629 12.304 8.901 18.933 5.074s8.901-12.304 5.074-18.933zm-3.403-3.937l.824-.824 2.259 2.259-.826.826a13.991 13.991 0 00-2.258-2.26z"/><path d="M5.334 18.132a.533.533 0 00-.533-.533H.535a.533.533 0 000 1.066h4.266a.533.533 0 00.533-.533zm-3.733-2.666h3.733a.533.533 0 100-1.066H1.601a.533.533 0 000 1.066zm4.266 5.866a.533.533 0 00-.533-.533H1.601a.533.533 0 000 1.066h3.733a.533.533 0 00.533-.533zm10.822.377a.534.534 0 00.754 0l7.413-7.413a.533.533 0 00-.754-.754l-7.036 7.036-3.173-3.173a.533.533 0 00-.754.754l3.55 3.55z"/></symbol><symbol id="icon-headlight" viewBox="0 0 32 32"><path d="M16.519 4.75h-3.75C14.271 7.775 15 11.149 15 14.125c0 2.962-.724 6.338-2.232 9.375h3.75c1.518-3.064 2.231-6.435 2.231-9.375 0-2.938-.712-6.309-2.231-9.375z"/><path d="M11.348 6.104l-.672-1.354H9.375C4.206 4.75 0 8.956 0 14.125S4.206 23.5 9.375 23.5h1.301c1.425-2.871 2.449-5.751 2.449-9.375 0-4.389-1.76-7.985-1.777-8.021zM32 8.549l-11.078-3.75-.593 1.778 11.078 3.75zm-11.672 3.652l11.078 3.75.593-1.778-11.078-3.75zm0 5.625l11.078 3.75.593-1.778-11.078-3.75zm0 5.625l11.078 3.75.593-1.778-11.078-3.75z"/></symbol><symbol id="icon-headlights" viewBox="0 0 32 32"><path d="M22.386 19.396a5.13 5.13 0 00-2.773-.815c-.205 0-.406.015-.604.039a11.858 11.858 0 00-.944-.039H6.306a4.246 4.246 0 00-4.241 4.241v1.841c0 1.471.745 2.816 1.994 3.596a4.23 4.23 0 002.247.645h23.546l-.112-.61c-.738-4.002-3.555-7.408-7.353-8.897zm1.356 4.346c0 2.277-1.852 4.129-4.129 4.129s-4.129-1.852-4.129-4.129 1.852-4.129 4.129-4.129 4.129 1.852 4.129 4.129zm-7.213-4.129a5.197 5.197 0 00-1.562 1.894 5.187 5.187 0 00-1.562-1.894zm-6.206 8.258c-2.277 0-4.129-1.852-4.129-4.129s1.852-4.129 4.129-4.129 4.129 1.852 4.129 4.129-1.852 4.129-4.129 4.129zm-4.018 0c-.602 0-1.19-.168-1.7-.487a3.192 3.192 0 01-1.509-2.722v-1.841a3.213 3.213 0 013.209-3.209h.934c-1.258.942-2.078 2.44-2.078 4.129s.82 3.187 2.078 4.129zm7.101 0a5.197 5.197 0 001.562-1.894c.363.75.9 1.399 1.562 1.894zm9.29 0a5.152 5.152 0 002.078-4.129c0-.767-.173-1.493-.474-2.147a10.94 10.94 0 014.293 6.276z"/><path d="M18.065 16.516H6.306a6.312 6.312 0 00-6.305 6.305v1.841a6.27 6.27 0 002.964 5.347 6.3 6.3 0 003.342.959h25.695v-.516c0-7.684-6.251-13.935-13.935-13.935zM6.305 29.935a5.267 5.267 0 01-2.795-.802 5.242 5.242 0 01-2.478-4.472V22.82a5.278 5.278 0 015.273-5.273h11.759c6.942 0 12.621 5.511 12.893 12.387z"/><path d="M19.613 25.806v-1.032a1.033 1.033 0 010-2.064c.569 0 1.032.463 1.032 1.032h1.032c0-1.139-.926-2.065-2.065-2.065s-2.065.926-2.065 2.065.926 2.065 2.065 2.065zm-9.29-4.129c-1.139 0-2.065.926-2.065 2.065s.926 2.065 2.065 2.065v-1.032a1.033 1.033 0 010-2.064c.569 0 1.032.463 1.032 1.032h1.032a2.067 2.067 0 00-2.065-2.065zm15.372-18.58H13.936c-.315 0-.63.014-.939.039a5.117 5.117 0 00-3.381.776C5.817 5.401 3 8.808 2.262 12.809l-.112.61h23.546a4.23 4.23 0 002.247-.645 4.218 4.218 0 001.994-3.596V7.337a4.246 4.246 0 00-4.241-4.241zm.111 5.161c0 2.277-1.852 4.129-4.129 4.129s-4.129-1.852-4.129-4.129 1.852-4.129 4.129-4.129 4.129 1.852 4.129 4.129zm-7.212-4.129a5.197 5.197 0 00-1.562 1.894 5.187 5.187 0 00-1.562-1.894zm-2.078 4.129c0 2.277-1.852 4.129-4.129 4.129s-4.129-1.852-4.129-4.129 1.852-4.129 4.129-4.129 4.129 1.852 4.129 4.129zM3.408 12.387A10.94 10.94 0 017.701 6.11a5.13 5.13 0 00-.474 2.148c0 1.689.82 3.187 2.078 4.129zm12.062 0a5.197 5.197 0 001.562-1.894c.363.751.9 1.399 1.562 1.894zm13.433-3.209a3.192 3.192 0 01-1.508 2.721 3.206 3.206 0 01-1.701.488h-.934c1.258-.942 2.078-2.44 2.078-4.129s-.82-3.187-2.078-4.129h.934a3.213 3.213 0 013.209 3.209z"/><path d="M25.695 1.032H13.936C6.252 1.032.001 7.283.001 14.967v.516h25.695a6.31 6.31 0 003.342-.958 6.27 6.27 0 002.964-5.347V7.337a6.312 6.312 0 00-6.305-6.305zm5.273 8.146c0 1.83-.926 3.501-2.478 4.472a5.27 5.27 0 01-2.795.802H1.043C1.314 7.575 6.994 2.065 13.936 2.065h11.759a5.278 5.278 0 015.273 5.273z"/><path d="M12.387 7.226a1.033 1.033 0 010 2.064v1.032c1.139 0 2.065-.926 2.065-2.065s-.926-2.065-2.065-2.065-2.065.926-2.065 2.065h1.032c0-.569.463-1.032 1.032-1.032zm9.29 0a1.033 1.033 0 010 2.064v1.032c1.139 0 2.065-.926 2.065-2.065s-.926-2.065-2.065-2.065-2.065.926-2.065 2.065h1.032c0-.569.463-1.032 1.032-1.032z"/></symbol><symbol id="icon-project" viewBox="0 0 32 32"><path d="M31.544 8.403l-.001-.001-2.066-.295a.531.531 0 01-.244-.951l1.669-1.252a.53.53 0 00.106-.743l-1.912-2.549a.53.53 0 00-.743-.106l-1.669 1.252a.53.53 0 01-.846-.5l.295-2.066a.531.531 0 00-.45-.601h-.001L22.53.141a.531.531 0 00-.601.45l-.295 2.066a.531.531 0 01-.951.244l-1.252-1.669a.53.53 0 00-.743-.106l-1.596 1.197a10.24 10.24 0 00-2.172 0 10.087 10.087 0 00-8.895 9.046c-.014.15-.02.299-.027.449h-.159a.53.53 0 00-.519.425l-.367 1.745-1.47-1.014a.53.53 0 00-.677.062l-1.593 1.593a.53.53 0 00-.062.676l1.009 1.467-1.745.367a.53.53 0 00-.417.52v2.124c0 .251.176.468.422.52l1.745.367-1.009 1.467a.53.53 0 00.062.676l1.593 1.593a.532.532 0 00.677.062l1.467-1.012.367 1.745a.53.53 0 00.519.425h2.124a.532.532 0 00.52-.422l.367-1.745 1.467 1.009a.53.53 0 00.676-.062l.825-.827v1.513a2.118 2.118 0 001.062 1.829v2.95c0 1.173.951 2.124 2.124 2.124h2.124a2.124 2.124 0 002.124-2.124v-2.95a2.115 2.115 0 001.062-1.829V22.99a2.6 2.6 0 011.228-2.167c.441-.286.859-.605 1.25-.956l-.708-.791c-.35.314-.724.6-1.119.855a3.658 3.658 0 00-1.713 3.059v2.102c0 .587-.475 1.062-1.062 1.062h-4.248a1.061 1.061 0 01-1.062-1.062v-2.146a3.575 3.575 0 00-1.684-2.997A9 9 0 0115.954 3.33a.571.571 0 00-.021.058.53.53 0 00.101.393l1.252 1.669a.519.519 0 01.032.589.528.528 0 01-.531.255l-2.066-.295a.531.531 0 00-.601.45v.001l-.451 3.153c-.042.29.16.559.45.601h.001l2.065.295a.531.531 0 01.244.951l-1.669 1.252a.53.53 0 00-.106.743l1.912 2.549a.53.53 0 00.743.106l1.669-1.252a.53.53 0 01.844.499l-.295 2.066c-.042.29.16.559.45.601l3.154.451a.531.531 0 00.601-.451l.295-2.066a.531.531 0 01.951-.244l1.252 1.669a.53.53 0 00.743.106l2.549-1.912a.53.53 0 00.106-.743l-1.252-1.669a.522.522 0 01-.032-.589.516.516 0 01.531-.255l2.066.295c.29.042.559-.16.601-.45l.45-3.154a.531.531 0 00-.45-.601zM13.946 27.216h4.248v1.062h-4.248v-1.062zm0 2.124h4.248v.531c0 .587-.475 1.062-1.062 1.062h-2.124a1.061 1.061 0 01-1.062-1.062v-.531zm-4.228-9.156c.29.237.593.458.907.661.502.317.879.797 1.07 1.359l-1.139 1.137-1.103-.76a1.062 1.062 0 00-1.642.656l-.278 1.326H6.271l-.278-1.324a1.062 1.062 0 00-1.642-.655l-1.103.758-.967-.965.76-1.102a1.062 1.062 0 00-.655-1.642l-1.324-.279v-1.262l1.324-.279a1.062 1.062 0 00.656-1.639l-.76-1.105.967-.965 1.104.76a1.063 1.063 0 001.641-.656l.093-.442c.085.612.226 1.214.421 1.801a3.186 3.186 0 103.212 4.62zm-.824-.748a2.12 2.12 0 11-1.991-2.838h.02a10.056 10.056 0 001.971 2.839zm21.671-7.956l-1.54-.22a1.593 1.593 0 00-1.499 2.533l.933 1.244-1.699 1.274-.933-1.244a1.593 1.593 0 00-2.851.73l-.215 1.542-2.102-.301.22-1.54a1.593 1.593 0 00-2.533-1.5l-1.244.933-1.274-1.699 1.244-.933a1.593 1.593 0 00-.73-2.851l-1.54-.22.301-2.102 1.54.22a1.593 1.593 0 001.5-2.533l-.936-1.245 1.699-1.274.933 1.244a1.593 1.593 0 002.851-.73l.22-1.54 2.102.3-.22 1.54a1.593 1.593 0 002.533 1.499l1.244-.933 1.274 1.699-1.244.933a1.593 1.593 0 00.73 2.851l1.54.22-.302 2.102z"/><path d="M22.832 5.056a4.248 4.248 0 100 8.496 4.248 4.248 0 000-8.496zm0 7.433a3.185 3.185 0 11-.001-6.37 3.185 3.185 0 01.001 6.37zM15.539 23.5h1.062v1.593h-1.062V23.5zm-1.792-5.215a6.37 6.37 0 01-1.075-11.327l-.568-.898a7.433 7.433 0 001.258 13.214 3.39 3.39 0 012.177 3.165h1.062a4.442 4.442 0 00-2.853-4.153zm12.411 1.498h3.717v1.062h-3.717v-1.062zm-.871 3.593l.68-.816 3.186 2.654-.68.816-3.186-2.654zm-2.315.655h1.062v3.717h-1.062v-3.717zM.542 9.179L4.79 8.117l.257 1.03-4.248 1.062-.257-1.03zm.882-5.424l.617-.864 3.717 2.655-.617.864-3.717-2.655zM5.974.267L7.003.004l1.086 4.247-1.029.263L5.974.267z"/></symbol><symbol id="icon-warranty" viewBox="0 0 32 32"><path d="M30.01 15.446a6.41 6.41 0 01-5.344-2.86l-.428-.643-.428.643a6.41 6.41 0 01-5.344 2.86h-1.951v8.257c0 1.996.898 3.871 2.4 5.13H8.277v-2.059h6.693v-9.268H4.158v4.119H1.069V1.03h22.654v9.268h1.03V.001H.039v22.353l7.51 7.51h12.949l3.741 2.137 4.351-2.486a6.707 6.707 0 003.372-5.811v-8.257h-1.951zM7.247 28.105l-5.45-5.45h5.45v5.45zm-2.059-6.48v-3.089h8.753v7.208H8.277v-4.119H5.188zm25.743 2.078a5.678 5.678 0 01-2.853 4.918l-3.84 2.194-3.84-2.194a5.676 5.676 0 01-2.853-4.918v-7.227h.921a7.437 7.437 0 005.772-2.738 7.437 7.437 0 005.772 2.738h.921v7.227z"/><path d="M28.872 20.595v3.108c0 1.29-.696 2.489-1.816 3.129l.511.894a4.644 4.644 0 002.335-4.023v-3.108h-1.03zM3.128 2.059v3.089h18.535V2.059H3.128zm17.506 2.06H4.158v-1.03h16.476v1.03zm7.874 13.538l-6.844 6.844-1.695-1.695-.728.728 2.424 2.424 7.572-7.572zM6.217 19.565h6.693v1.03H6.217v-1.03zm3.09 2.06h3.604v1.03H9.307v-1.03zm0 2.059h3.604v1.03H9.307v-1.03zM3.128 7.208h16.476v1.03H3.128v-1.03zm0 2.06h16.476v1.03H3.128v-1.03zm0 2.059h16.476v1.03H3.128v-1.03zm0 2.06h9.783v1.03H3.128v-1.03zm0 2.059h9.783v1.03H3.128v-1.03zm17.506-8.238h1.03v1.03h-1.03v-1.03zm0 2.06h1.03v1.03h-1.03v-1.03zm0 2.059h1.03v1.03h-1.03v-1.03zm-6.693 2.06h1.03v1.03h-1.03v-1.03zm0 2.059h1.03v1.03h-1.03v-1.03z"/></symbol></defs></svg>