<svg width="800px" height="1158px" viewBox="0 0 588 1158" version="1.1" xmlns="http://www.w3.org/2000/svg">
    <g id="Page-1" stroke="none" stroke-width="1" fill="none" fill-rule="evenodd">
        <g id="Главная---баннер" transform="translate(0.000000, -2055.000000)" fill="#F9F9F9">
            <g id="Group-8" transform="translate(-414.000000, 0.000000)">
                <path d="M1033.97871,2252.0266 C961.078799,2080.07322 726.896731,2067.64461 656.121943,2067.64461 C585.347154,2067.64461 484.415251,2111.71717 453.288349,2270.59364 C422.161447,2429.47011 549.695269,2539.82363 503.437681,2641.53502 C457.180092,2743.24641 322.675764,2714.50716 256.617359,2830.47588 C190.558953,2946.44459 222.350721,3014.25022 307.527094,3102.27771 C392.703468,3190.30519 587.249289,3203.14192 730.765203,3131.2078 C894.110713,3049.33454 931.453412,2875.3921 966.445936,2799.62441 C1032.18301,2657.28698 1106.87861,2423.97999 1033.97871,2252.0266 Z" id="Path-4" transform="translate(642.604838, 2622.696354) scale(-1, 1) rotate(-30.000000) translate(-642.604838, -2622.696354) "></path>
            </g>
        </g>
    </g>
</svg>