
<svg width="977px" height="1151px" viewBox="0 0 977 1151" version="1.1" xmlns="http://www.w3.org/2000/svg" xmlns:xlink="http://www.w3.org/1999/xlink">
    <g id="Page-1" stroke="none" stroke-width="1" fill="none" fill-rule="evenodd">
        <g id="Главная---баннер" transform="translate(-345.000000, -835.000000)" fill="#F9F9F9">
            <path d="M1321.77564,1074 C1321.77564,974 1264.1102,892.458027 1170.91945,865 C1077.72869,837.541973 862.213438,835 791.463404,835 C720.713369,835 619.816768,879.08231 588.700753,1037.99392 C557.584738,1196.90553 685.073954,1307.28347 638.832544,1409.01735 C592.591135,1510.75124 458.133851,1482.00563 392.09855,1598 C326.063249,1713.99437 326.914718,1829.95305 412.061301,1918 C497.207884,2006.04695 650,1991.18438 872,1965.18438 C1094,1939.18438 1173.37068,1892.36892 1239.08476,1750 C1304.79884,1607.63108 1321.77564,1140.46708 1321.77564,1074 Z" id="Path-4"></path>
        </g>
    </g>
</svg>