<svg aria-hidden="true" style="position: absolute; width: 0; height: 0; overflow: hidden;" version="1.1" xmlns="http://www.w3.org/2000/svg" xmlns:xlink="http://www.w3.org/1999/xlink">
<defs>
<symbol id="icon-certification" viewBox="0 0 32 32">
<path d="M24.67 22.976c1.553 0 2.817-1.264 2.817-2.817s-1.264-2.817-2.817-2.817-2.817 1.264-2.817 2.817c0 1.553 1.264 2.817 2.817 2.817zM24.67 18.279c1.036 0 1.88 0.843 1.88 1.88s-0.843 1.88-1.88 1.88c-1.036 0-1.88-0.843-1.88-1.88s0.843-1.88 1.88-1.88z"></path>
<path d="M20.008 8.696c0.259 0 0.469-0.21 0.469-0.469s-0.21-0.469-0.469-0.469h-8.016c-0.259 0-0.469 0.21-0.469 0.469s0.21 0.469 0.469 0.469z"></path>
<path d="M18.473 17.95c0-0.259-0.21-0.469-0.469-0.469h-4.008c-0.259 0-0.469 0.21-0.469 0.469s0.21 0.469 0.469 0.469h4.008c0.259 0 0.469-0.21 0.469-0.469z"></path>
<path d="M7.515 10.168c0 0.259 0.21 0.469 0.469 0.469h16.032c0.259 0 0.469-0.21 0.469-0.469s-0.21-0.469-0.469-0.469h-16.032c-0.259 0-0.469 0.21-0.469 0.469z"></path>
<path d="M7.984 12.578h16.032c0.259 0 0.469-0.21 0.469-0.469s-0.21-0.469-0.469-0.469h-16.032c-0.259 0-0.469 0.21-0.469 0.469s0.21 0.469 0.469 0.469z"></path>
<path d="M7.984 14.519h16.032c0.259 0 0.469-0.21 0.469-0.469s-0.21-0.469-0.469-0.469h-16.032c-0.259 0-0.469 0.21-0.469 0.469s0.21 0.469 0.469 0.469z"></path>
<path d="M0 3.952v16.995c0 1.345 1.095 2.44 2.44 2.44h18.839c0.032 0.014 0.064 0.027 0.097 0.039v6.17c0 0.334 0.185 0.637 0.482 0.791 0.129 0.067 0.27 0.1 0.409 0.1 0.181 0 0.361-0.055 0.515-0.165l1.888-1.34 1.888 1.34c0.273 0.194 0.627 0.218 0.924 0.065s0.482-0.457 0.482-0.791v-6.17c0.032-0.012 0.065-0.025 0.097-0.039h1.5c1.345 0 2.44-1.095 2.44-2.44v-7.404c0-0.259-0.21-0.469-0.469-0.469s-0.469 0.21-0.469 0.469v7.404c0 0.829-0.674 1.503-1.503 1.503h-0.78c0.047-0.357-0.024-0.752 0.038-0.943 0.090-0.279 0.679-0.71 0.679-1.348 0-0.419-0.249-0.74-0.449-0.998-0.202-0.26-0.228-0.316-0.244-0.413 0.127-0.027 0.256-0.041 0.387-0.041 0.548 0.004 0.934-0.423 0.934-0.911v-10.692c0-0.511-0.417-0.917-0.917-0.911-1.070 0.004-1.896-0.854-1.888-1.888 0.004-0.506-0.406-0.917-0.912-0.917h-20.817c-0.477 0-0.913 0.372-0.911 0.934 0 1.022-0.821 1.875-1.888 1.871-0.502-0.005-0.917 0.402-0.917 0.911v10.692c0 0.482 0.38 0.915 0.934 0.911 1.016 0 1.875 0.822 1.871 1.888-0.004 0.506 0.406 0.917 0.912 0.917h9.315c0.259 0 0.469-0.21 0.469-0.469s-0.21-0.469-0.469-0.469h-9.289c-0.002-1.546-1.259-2.803-2.805-2.805v-10.64c1.55-0.002 2.803-1.255 2.805-2.805h20.765c0.001 0.749 0.293 1.453 0.823 1.982s1.233 0.822 1.982 0.822v10.64c-0.141 0-0.28 0.011-0.418 0.032-0.119-0.678-0.625-0.866-1.13-1.014-0.429-0.126-0.432-0.132-0.676-0.49-0.183-0.268-0.41-0.603-0.803-0.73-0.38-0.123-0.753 0.009-1.053 0.116-0.431 0.153-0.447 0.153-0.878 0-0.243-0.086-0.533-0.189-0.836-0.16h-15.411c-0.259 0-0.469 0.21-0.469 0.469s0.21 0.469 0.469 0.469h14.277c-0.054 0.073-0.107 0.137-0.154 0.171-0.285 0.207-1.199 0.182-1.478 0.946-0.166 0.454-0.027 0.986-0.107 1.234-0.108 0.334-0.942 0.898-0.596 1.764h-2.831c-0.259 0-0.469 0.21-0.469 0.469s0.21 0.469 0.469 0.469h3.429c0.059 0.195-0.010 0.581 0.037 0.938h-18.119c-0.829 0-1.502-0.674-1.502-1.503v-16.995c0-0.829 0.674-1.502 1.502-1.502h27.12c0.828 0 1.503 0.674 1.503 1.502v7.404c0 0.259 0.21 0.469 0.469 0.469s0.469-0.21 0.469-0.469v-7.404c0-1.345-1.095-2.44-2.44-2.44h-27.12c-1.345 0-2.44 1.095-2.44 2.44zM23.021 29.003l-0.708 0.503v-5.574c0.171 0.246 0.37 0.579 0.708 0.754zM25.381 28.338l-0.196-0.139c-0.019-0.014-0.039-0.026-0.059-0.038-0.14-0.084-0.298-0.126-0.456-0.126-0.181 0-0.361 0.055-0.515 0.164l-0.196 0.139v-3.611c0.941-0.274 0.445-0.284 1.422 0zM27.026 29.505l-0.708-0.502v-4.318c0.338-0.175 0.536-0.507 0.708-0.754zM21.032 19.735c0.396-0.512 0.468-0.712 0.45-1.391-0.013-0.486-0.003-0.494 0.248-0.584 0.697-0.249 0.896-0.166 1.419-0.936 0.101-0.149 0.227-0.333 0.314-0.365 0.103 0 0.101-0.019 0.453 0.106 0.641 0.227 0.867 0.226 1.504 0 0.158-0.056 0.374-0.133 0.45-0.108 0.088 0.028 0.215 0.216 0.317 0.366 0.375 0.55 0.547 0.674 1.186 0.862 0.505 0.148 0.495 0.135 0.481 0.657-0.018 0.679 0.053 0.879 0.45 1.391 0.33 0.425 0.33 0.422 0 0.848-0.453 0.584-0.46 0.759-0.448 1.492 0.009 0.513-0.026 0.386-0.75 0.64-0.468 0.164-0.639 0.366-0.92 0.778-0.306 0.45-0.289 0.428-0.768 0.258-0.89-0.315-1.016-0.134-1.733 0.077-0.285 0.083-0.254 0.060-0.641-0.482-0.606-0.849-1.246-0.619-1.517-0.891-0.066-0.069-0.052-0.354-0.048-0.481 0.014-0.541-0.015-0.788-0.31-1.205-0.441-0.616-0.531-0.529-0.14-1.034z"></path>
</symbol>
<symbol id="icon-stopwatch" viewBox="0 0 32 32">
<path d="M18.133 29.864c6.48 0 11.732-5.253 11.732-11.732s-5.253-11.732-11.732-11.732-11.732 5.253-11.732 11.732c0.007 6.477 5.256 11.725 11.732 11.732zM9.067 17.599h-1.573c0.278-5.462 4.644-9.827 10.105-10.105v1.573c0 0.294 0.239 0.533 0.533 0.533s0.533-0.239 0.533-0.533v-1.573c5.462 0.278 9.827 4.644 10.105 10.105h-2.106c-0.294 0-0.533 0.239-0.533 0.533s0.239 0.533 0.533 0.533h2.106c-0.278 5.462-4.644 9.827-10.105 10.105v-1.573c0-0.294-0.239-0.533-0.533-0.533s-0.533 0.239-0.533 0.533v1.573c-5.462-0.278-9.827-4.644-10.105-10.105h1.573c0.294 0 0.533-0.239 0.533-0.533s-0.239-0.533-0.533-0.533z"></path>
<path d="M30.14 11.208c-0.159-0.275-0.327-0.545-0.505-0.809l1.317-1.317c0.208-0.208 0.208-0.546 0-0.754l-3.013-3.013c-0.208-0.208-0.546-0.208-0.754 0l-1.319 1.315c-2.133-1.44-4.627-2.254-7.199-2.35v-3.213h3.733c0.294 0 0.533-0.239 0.533-0.533s-0.239-0.533-0.533-0.533h-8.533c-0.294 0-0.533 0.239-0.533 0.533s0.239 0.533 0.533 0.533h3.733v3.218c-4.756 0.182-9.086 2.793-11.466 6.915h-2.933c-0.294 0-0.533 0.239-0.533 0.533s0.239 0.533 0.533 0.533h3.2c0.014 0 0.026-0.007 0.039-0.008 0.192 0.002 0.37-0.1 0.466-0.267 3.393-6.201 11.171-8.478 17.372-5.085s8.478 11.171 5.085 17.372c-3.393 6.201-11.171 8.478-17.372 5.085-2.146-1.174-3.91-2.939-5.085-5.085-0.094-0.168-0.272-0.271-0.465-0.269-0.014 0-0.026-0.008-0.041-0.008h-3.2c-0.295 0-0.533 0.239-0.533 0.533s0.239 0.533 0.533 0.533h2.933c3.827 6.629 12.304 8.901 18.933 5.074s8.901-12.304 5.074-18.933zM26.737 7.271l0.824-0.824 2.259 2.259-0.826 0.826c-0.664-0.837-1.421-1.595-2.258-2.26z"></path>
<path d="M5.334 18.132c0-0.294-0.239-0.533-0.533-0.533h-4.266c-0.294 0-0.533 0.239-0.533 0.533s0.239 0.533 0.533 0.533h4.266c0.295 0 0.533-0.239 0.533-0.533z"></path>
<path d="M1.601 15.466h3.733c0.295 0 0.533-0.239 0.533-0.533s-0.239-0.533-0.533-0.533h-3.733c-0.294 0-0.533 0.239-0.533 0.533s0.239 0.533 0.533 0.533z"></path>
<path d="M5.867 21.332c0-0.294-0.239-0.533-0.533-0.533h-3.733c-0.294 0-0.533 0.239-0.533 0.533s0.239 0.533 0.533 0.533h3.733c0.295 0 0.533-0.239 0.533-0.533z"></path>
<path d="M16.689 21.709c0.208 0.208 0.546 0.208 0.754 0l7.413-7.413c0.205-0.212 0.199-0.549-0.013-0.754-0.207-0.2-0.534-0.2-0.741 0l-7.036 7.036-3.173-3.173c-0.212-0.205-0.55-0.199-0.754 0.013-0.2 0.207-0.2 0.534 0 0.741l3.55 3.55z"></path>
</symbol>
<symbol id="icon-headlight" viewBox="0 0 32 32">
<path d="M16.519 4.75h-3.75c1.502 3.025 2.231 6.399 2.231 9.375 0 2.962-0.724 6.338-2.232 9.375h3.75c1.518-3.064 2.231-6.435 2.231-9.375 0-2.938-0.712-6.309-2.231-9.375z"></path>
<path d="M11.348 6.104l-0.672-1.354h-1.301c-5.169 0-9.375 4.206-9.375 9.375s4.206 9.375 9.375 9.375h1.301c1.425-2.871 2.449-5.751 2.449-9.375 0-4.389-1.76-7.985-1.777-8.021z"></path>
<path d="M32 8.549l-11.078-3.75-0.593 1.778 11.078 3.75z"></path>
<path d="M20.328 12.201l11.078 3.75 0.593-1.778-11.078-3.75z"></path>
<path d="M20.328 17.826l11.078 3.75 0.593-1.778-11.078-3.75z"></path>
<path d="M20.328 23.451l11.078 3.75 0.593-1.778-11.078-3.75z"></path>
</symbol>
<symbol id="icon-headlights" viewBox="0 0 32 32">
<path d="M22.386 19.396c-0.802-0.513-1.752-0.815-2.773-0.815-0.205 0-0.406 0.015-0.604 0.039-0.312-0.025-0.629-0.039-0.944-0.039h-11.759c-2.338 0-4.241 1.903-4.241 4.241v1.841c0 1.471 0.745 2.816 1.994 3.596 0.674 0.422 1.451 0.645 2.247 0.645h23.546l-0.112-0.61c-0.738-4.002-3.555-7.408-7.353-8.897zM23.742 23.742c0 2.277-1.852 4.129-4.129 4.129s-4.129-1.852-4.129-4.129 1.852-4.129 4.129-4.129 4.129 1.852 4.129 4.129zM16.529 19.613c-0.661 0.495-1.199 1.144-1.562 1.894-0.363-0.75-0.9-1.399-1.562-1.894zM10.323 27.871c-2.277 0-4.129-1.852-4.129-4.129s1.852-4.129 4.129-4.129 4.129 1.852 4.129 4.129-1.852 4.129-4.129 4.129zM6.305 27.871c-0.602 0-1.19-0.168-1.7-0.487-0.945-0.591-1.509-1.608-1.509-2.722v-1.841c0-1.769 1.44-3.209 3.209-3.209h0.934c-1.258 0.942-2.078 2.44-2.078 4.129s0.82 3.187 2.078 4.129zM13.406 27.871c0.661-0.495 1.199-1.144 1.562-1.894 0.363 0.75 0.9 1.399 1.562 1.894zM22.696 27.871c1.258-0.942 2.078-2.44 2.078-4.129 0-0.767-0.173-1.493-0.474-2.147 2.117 1.5 3.667 3.735 4.293 6.276z"></path>
<path d="M18.065 16.516h-11.759c-3.477 0-6.305 2.828-6.305 6.305v1.841c0 2.188 1.108 4.187 2.964 5.347 1.003 0.627 2.159 0.959 3.342 0.959h25.695v-0.516c0-7.684-6.251-13.935-13.935-13.935zM6.305 29.935c-0.989 0-1.955-0.277-2.795-0.802-1.552-0.97-2.478-2.641-2.478-4.472v-1.841c0-2.908 2.365-5.273 5.273-5.273h11.759c6.942 0 12.621 5.511 12.893 12.387z"></path>
<path d="M19.613 25.806v-1.032c-0.569 0-1.032-0.463-1.032-1.032s0.463-1.032 1.032-1.032 1.032 0.463 1.032 1.032h1.032c0-1.139-0.926-2.065-2.065-2.065s-2.065 0.926-2.065 2.065 0.926 2.065 2.065 2.065z"></path>
<path d="M10.323 21.677c-1.139 0-2.065 0.926-2.065 2.065s0.926 2.065 2.065 2.065v-1.032c-0.569 0-1.032-0.463-1.032-1.032s0.463-1.032 1.032-1.032 1.032 0.463 1.032 1.032h1.032c0-1.139-0.926-2.065-2.065-2.065z"></path>
<path d="M25.695 3.097h-11.759c-0.315 0-0.63 0.014-0.939 0.039-0.2-0.024-0.403-0.039-0.609-0.039-1.021 0-1.97 0.301-2.772 0.815-3.799 1.489-6.616 4.896-7.354 8.897l-0.112 0.61h23.546c0.796 0 1.573-0.223 2.247-0.645 1.248-0.78 1.994-2.125 1.994-3.596v-1.841c0-2.338-1.902-4.241-4.241-4.241zM25.806 8.258c0 2.277-1.852 4.129-4.129 4.129s-4.129-1.852-4.129-4.129 1.852-4.129 4.129-4.129 4.129 1.852 4.129 4.129zM18.594 4.129c-0.661 0.495-1.199 1.144-1.562 1.894-0.363-0.75-0.9-1.399-1.562-1.894zM16.516 8.258c0 2.277-1.852 4.129-4.129 4.129s-4.129-1.852-4.129-4.129 1.852-4.129 4.129-4.129 4.129 1.852 4.129 4.129zM3.408 12.387c0.626-2.541 2.175-4.776 4.293-6.277-0.301 0.655-0.474 1.381-0.474 2.148 0 1.689 0.82 3.187 2.078 4.129zM15.47 12.387c0.661-0.495 1.199-1.144 1.562-1.894 0.363 0.751 0.9 1.399 1.562 1.894zM28.903 9.178c0 1.113-0.564 2.131-1.508 2.721-0.511 0.319-1.098 0.488-1.701 0.488h-0.934c1.258-0.942 2.078-2.44 2.078-4.129s-0.82-3.187-2.078-4.129h0.934c1.769 0 3.209 1.44 3.209 3.209z"></path>
<path d="M25.695 1.032h-11.759c-7.684 0-13.935 6.251-13.935 13.935v0.516h25.695c1.183 0 2.338-0.332 3.342-0.958 1.856-1.16 2.964-3.159 2.964-5.347v-1.841c0-3.477-2.828-6.305-6.305-6.305zM30.968 9.178c0 1.83-0.926 3.501-2.478 4.472-0.839 0.524-1.805 0.802-2.795 0.802h-24.652c0.271-6.877 5.951-12.387 12.893-12.387h11.759c2.908 0 5.273 2.365 5.273 5.273z"></path>
<path d="M12.387 7.226c0.569 0 1.032 0.463 1.032 1.032s-0.463 1.032-1.032 1.032v1.032c1.139 0 2.065-0.926 2.065-2.065s-0.926-2.065-2.065-2.065-2.065 0.926-2.065 2.065h1.032c0-0.569 0.463-1.032 1.032-1.032z"></path>
<path d="M21.677 7.226c0.569 0 1.032 0.463 1.032 1.032s-0.463 1.032-1.032 1.032v1.032c1.139 0 2.065-0.926 2.065-2.065s-0.926-2.065-2.065-2.065-2.065 0.926-2.065 2.065h1.032c0-0.569 0.463-1.032 1.032-1.032z"></path>
</symbol>
<symbol id="icon-project" viewBox="0 0 32 32">
<path d="M31.544 8.403c-0 0-0 0-0 0l-0.001-0.001-2.066-0.295c-0.29-0.041-0.492-0.31-0.451-0.601 0.020-0.139 0.094-0.265 0.207-0.35l1.669-1.252c0.235-0.176 0.282-0.509 0.106-0.743l-1.912-2.549c-0.176-0.235-0.509-0.282-0.743-0.106l-1.669 1.252c-0.234 0.177-0.567 0.132-0.744-0.102-0.086-0.113-0.123-0.257-0.102-0.398l0.295-2.066c0.042-0.29-0.16-0.559-0.45-0.601-0 0-0-0-0.001-0l-3.152-0.45c-0.29-0.042-0.559 0.16-0.601 0.45 0 0 0 0 0 0l-0.295 2.066c-0.041 0.29-0.31 0.492-0.601 0.451-0.14-0.020-0.265-0.094-0.35-0.207l-1.252-1.669c-0.176-0.235-0.509-0.282-0.743-0.106l-1.596 1.197c-0.722-0.077-1.45-0.077-2.172 0-4.727 0.54-8.435 4.31-8.895 9.046-0.014 0.15-0.020 0.299-0.027 0.449h-0.159c-0.252 0-0.469 0.178-0.519 0.425l-0.367 1.745-1.47-1.014c-0.211-0.146-0.496-0.12-0.677 0.062l-1.593 1.593c-0.181 0.181-0.207 0.466-0.062 0.676l1.009 1.467-1.745 0.367c-0.244 0.053-0.418 0.27-0.417 0.52v2.124c-0 0.251 0.176 0.468 0.422 0.52l1.745 0.367-1.009 1.467c-0.145 0.211-0.119 0.495 0.062 0.676l1.593 1.593c0.181 0.181 0.466 0.207 0.677 0.062l1.467-1.012 0.367 1.745c0.050 0.247 0.267 0.424 0.519 0.425h2.124c0.251 0 0.468-0.176 0.52-0.422l0.367-1.745 1.467 1.009c0.211 0.145 0.495 0.119 0.676-0.062l0.825-0.827v1.513c0.002 0.755 0.407 1.452 1.062 1.829v2.95c0 1.173 0.951 2.124 2.124 2.124h2.124c1.173 0 2.124-0.951 2.124-2.124v-2.95c0.655-0.376 1.060-1.073 1.062-1.829v-2.102c0.014-0.884 0.477-1.701 1.228-2.167 0.441-0.286 0.859-0.605 1.25-0.956l-0.708-0.791c-0.35 0.314-0.724 0.6-1.119 0.855-1.054 0.662-1.7 1.814-1.713 3.059v2.102c0 0.587-0.475 1.062-1.062 1.062h-4.248c-0.587 0-1.062-0.475-1.062-1.062v-2.146c-0.012-1.221-0.648-2.351-1.684-2.997-4.208-2.644-5.476-8.2-2.832-12.408 1.641-2.611 4.504-4.2 7.588-4.211-0.008 0.019-0.015 0.038-0.021 0.058-0.020 0.139 0.017 0.281 0.101 0.393l1.252 1.669c0.132 0.171 0.145 0.405 0.032 0.589-0.109 0.185-0.319 0.286-0.531 0.255l-2.066-0.295c-0.29-0.042-0.559 0.16-0.601 0.45 0 0-0 0-0 0.001l-0.451 3.153c-0.042 0.29 0.16 0.559 0.45 0.601 0 0 0 0 0.001 0l2.065 0.295c0.29 0.041 0.492 0.31 0.451 0.601-0.020 0.139-0.094 0.265-0.207 0.35l-1.669 1.252c-0.235 0.176-0.282 0.509-0.106 0.743l1.912 2.549c0.176 0.235 0.509 0.282 0.743 0.106l1.669-1.252c0.235-0.176 0.568-0.128 0.743 0.107 0.084 0.112 0.12 0.253 0.101 0.392l-0.295 2.066c-0.042 0.29 0.16 0.559 0.45 0.601 0 0 0 0 0 0l3.154 0.451c0.025 0.003 0.050 0.005 0.075 0.005 0.264 0 0.489-0.194 0.526-0.456l0.295-2.066c0.041-0.29 0.31-0.492 0.601-0.451 0.14 0.020 0.265 0.094 0.35 0.207l1.252 1.669c0.176 0.235 0.509 0.282 0.743 0.106l2.549-1.912c0.235-0.176 0.282-0.509 0.106-0.743l-1.252-1.669c-0.131-0.171-0.144-0.405-0.032-0.589 0.106-0.188 0.318-0.289 0.531-0.255l2.066 0.295c0.29 0.042 0.559-0.16 0.601-0.45 0-0 0-0 0-0l0.45-3.154c0.042-0.29-0.16-0.559-0.45-0.601zM13.946 27.216h4.248v1.062h-4.248v-1.062zM13.946 29.34h4.248v0.531c0 0.587-0.475 1.062-1.062 1.062h-2.124c-0.587 0-1.062-0.475-1.062-1.062v-0.531zM9.718 20.184c0.29 0.237 0.593 0.458 0.907 0.661 0.502 0.317 0.879 0.797 1.070 1.359l-1.139 1.137-1.103-0.76c-0.483-0.333-1.144-0.211-1.477 0.272-0.080 0.116-0.136 0.246-0.165 0.384l-0.278 1.326h-1.262l-0.278-1.324c-0.121-0.574-0.684-0.941-1.258-0.82-0.138 0.029-0.268 0.085-0.384 0.165l-1.103 0.758-0.967-0.965 0.76-1.102c0.333-0.483 0.212-1.144-0.271-1.477-0.116-0.080-0.247-0.136-0.384-0.165l-1.324-0.279v-1.262l1.324-0.279c0.574-0.122 0.94-0.685 0.819-1.259-0.029-0.136-0.084-0.265-0.163-0.38l-0.76-1.105 0.967-0.965 1.104 0.76c0.483 0.332 1.144 0.21 1.477-0.273 0.080-0.116 0.136-0.246 0.164-0.383l0.093-0.442c0.085 0.612 0.226 1.214 0.421 1.801-1.747 0.208-2.995 1.794-2.786 3.541s1.793 2.995 3.541 2.786c1.052-0.125 1.972-0.765 2.457-1.707zM8.894 19.436c-0.396 1.102-1.611 1.674-2.713 1.278s-1.674-1.611-1.278-2.713c0.303-0.843 1.104-1.405 2-1.403 0.007 0 0.013 0 0.020 0 0.488 1.053 1.155 2.013 1.971 2.839zM30.565 11.48l-1.54-0.22c-0.871-0.124-1.678 0.481-1.802 1.352-0.060 0.418 0.049 0.843 0.303 1.181l0.933 1.244-1.699 1.274-0.933-1.244c-0.528-0.704-1.526-0.847-2.23-0.319-0.338 0.253-0.561 0.631-0.621 1.049l-0.215 1.542-2.102-0.301 0.22-1.54c0.125-0.871-0.48-1.678-1.351-1.803-0.418-0.060-0.844 0.049-1.182 0.303l-1.244 0.933-1.274-1.699 1.244-0.933c0.704-0.528 0.847-1.526 0.319-2.23-0.253-0.338-0.631-0.561-1.049-0.621l-1.54-0.22 0.301-2.102 1.54 0.22c0.871 0.125 1.678-0.48 1.803-1.351 0.060-0.418-0.049-0.844-0.303-1.182l-0.936-1.245 1.699-1.274 0.933 1.244c0.528 0.704 1.526 0.847 2.23 0.319 0.338-0.253 0.561-0.631 0.621-1.049l0.22-1.54 2.102 0.3-0.22 1.54c-0.124 0.871 0.481 1.678 1.352 1.802 0.418 0.060 0.843-0.049 1.181-0.303l1.244-0.933 1.274 1.699-1.244 0.933c-0.704 0.528-0.847 1.526-0.319 2.23 0.253 0.338 0.631 0.561 1.049 0.621l1.54 0.22-0.302 2.102z"></path>
<path d="M22.832 5.056c-2.346 0-4.248 1.902-4.248 4.248s1.902 4.248 4.248 4.248c2.346 0 4.248-1.902 4.248-4.248-0.003-2.345-1.903-4.245-4.248-4.248zM22.832 12.489c-1.76 0-3.186-1.426-3.186-3.186s1.426-3.186 3.186-3.186c1.76 0 3.186 1.426 3.186 3.186-0.002 1.759-1.427 3.184-3.186 3.186z"></path>
<path d="M15.539 23.5h1.062v1.593h-1.062v-1.593z"></path>
<path d="M13.747 18.285c-3.278-1.28-4.897-4.976-3.616-8.253 0.496-1.27 1.387-2.348 2.541-3.074l-0.568-0.898c-3.474 2.188-4.516 6.778-2.327 10.252 0.848 1.345 2.104 2.383 3.585 2.962 1.311 0.502 2.177 1.761 2.177 3.165h1.062c0.002-1.842-1.133-3.494-2.853-4.153z"></path>
<path d="M26.158 19.783h3.717v1.062h-3.717v-1.062z"></path>
<path d="M25.287 23.376l0.68-0.816 3.186 2.654-0.68 0.816-3.186-2.654z"></path>
<path d="M22.972 24.031h1.062v3.717h-1.062v-3.717z"></path>
<path d="M0.542 9.179l4.248-1.062 0.257 1.030-4.248 1.062-0.257-1.030z"></path>
<path d="M1.424 3.755l0.617-0.864 3.717 2.655-0.617 0.864-3.717-2.655z"></path>
<path d="M5.974 0.267l1.029-0.263 1.086 4.247-1.029 0.263-1.086-4.247z"></path>
</symbol>
<symbol id="icon-warranty" viewBox="0 0 32 32">
<path d="M30.010 15.446c-2.152 0-4.15-1.069-5.344-2.86l-0.428-0.643-0.428 0.643c-1.194 1.791-3.192 2.86-5.344 2.86h-1.951v8.257c0 1.996 0.898 3.871 2.4 5.13h-10.638v-2.059h6.693v-9.268h-10.812v4.119h-3.089v-20.595h22.654v9.268h1.030v-10.297h-24.714v22.353l7.51 7.51h12.949l3.741 2.137 4.351-2.486c2.080-1.188 3.372-3.416 3.372-5.811v-8.257h-1.951zM7.247 28.105l-5.45-5.45h5.45v5.45zM5.188 21.625v-3.089h8.753v7.208h-5.664v-4.119h-3.089zM30.931 23.703c0 2.028-1.094 3.912-2.853 4.918l-3.84 2.194-3.84-2.194c-1.76-1.006-2.853-2.89-2.853-4.918v-7.227h0.921c2.255 0 4.364-1.012 5.772-2.738 1.408 1.726 3.517 2.738 5.772 2.738h0.921v7.227z"></path>
<path d="M28.872 20.595v3.108c0 1.29-0.696 2.489-1.816 3.129l0.511 0.894c1.44-0.823 2.335-2.364 2.335-4.023v-3.108h-1.030z"></path>
<path d="M3.128 2.059v3.089h18.535v-3.089h-18.535zM20.634 4.119h-16.476v-1.030h16.476v1.030z"></path>
<path d="M28.508 17.657l-6.844 6.844-1.695-1.695-0.728 0.728 2.424 2.424 7.572-7.572z"></path>
<path d="M6.217 19.565h6.693v1.030h-6.693v-1.030z"></path>
<path d="M9.307 21.625h3.604v1.030h-3.604v-1.030z"></path>
<path d="M9.307 23.684h3.604v1.030h-3.604v-1.030z"></path>
<path d="M3.128 7.208h16.476v1.030h-16.476v-1.030z"></path>
<path d="M3.128 9.268h16.476v1.030h-16.476v-1.030z"></path>
<path d="M3.128 11.327h16.476v1.030h-16.476v-1.030z"></path>
<path d="M3.128 13.387h9.783v1.030h-9.783v-1.030z"></path>
<path d="M3.128 15.446h9.783v1.030h-9.783v-1.030z"></path>
<path d="M20.634 7.208h1.030v1.030h-1.030v-1.030z"></path>
<path d="M20.634 9.268h1.030v1.030h-1.030v-1.030z"></path>
<path d="M20.634 11.327h1.030v1.030h-1.030v-1.030z"></path>
<path d="M13.941 13.387h1.030v1.030h-1.030v-1.030z"></path>
<path d="M13.941 15.446h1.030v1.030h-1.030v-1.030z"></path>
</symbol>
</defs>
</svg>
