<svg width="800" height="1158" viewBox="0 0 588 1158" xmlns="http://www.w3.org/2000/svg"><g id="Page-1" stroke="none" stroke-width="1" fill="none" fill-rule="evenodd"><g id="Главная---баннер" transform="translate(0 -2055)" fill="#F9F9F9"><g id="Group-8" transform="translate(-414)"><path d="M1033.979 2252.027c-72.9-171.954-307.082-184.382-377.857-184.382-70.775 0-171.707 44.072-202.834 202.949-31.127 158.876 96.407 269.23 50.15 370.941-46.258 101.711-180.762 72.972-246.82 188.94-66.059 115.97-34.267 183.775 50.91 271.803 85.175 88.027 279.721 100.864 423.237 28.93 163.346-81.873 200.688-255.816 235.68-331.584 65.738-142.337 140.434-375.644 67.534-547.597z" id="Path-4" transform="scale(-1 1) rotate(-30 0 5020.93)"/></g></g></g></svg>