<svg xmlns="http://www.w3.org/2000/svg" viewBox="0 0 795 795" opacity=".75"><style>.st0{fill:#2855af}</style><path class="st0" d="M397.5 794.5c-53.59 0-105.59-10.5-154.53-31.2-47.27-20-89.73-48.62-126.19-85.08S51.69 599.3 31.7 552.03C11 503.09.5 451.09.5 397.5S11 291.91 31.7 242.97c20-47.27 48.62-89.73 85.08-126.19S195.7 51.69 242.97 31.7C291.91 11 343.91.5 397.5.5S503.09 11 552.03 31.7c47.27 20 89.73 48.62 126.19 85.08s65.08 78.92 85.08 126.19c20.7 48.94 31.2 100.94 31.2 154.53S784 503.09 763.3 552.03c-20 47.27-48.62 89.73-85.08 126.19S599.3 743.3 552.03 763.3c-48.94 20.7-100.94 31.2-154.53 31.2z"/><path class="st0" d="M397.5 1c53.53 0 105.45 10.48 154.34 31.16 47.21 19.97 89.62 48.56 126.03 84.97s65 78.82 84.97 126.03C783.52 292.05 794 343.97 794 397.5s-10.48 105.45-31.16 154.34c-19.97 47.21-48.56 89.62-84.97 126.03s-78.82 65-126.03 84.97C502.95 783.52 451.03 794 397.5 794s-105.45-10.48-154.34-31.16c-47.21-19.97-89.62-48.56-126.03-84.97s-65-78.82-84.97-126.03C11.48 502.95 1 451.03 1 397.5s10.48-105.45 31.16-154.34c19.97-47.21 48.56-89.62 84.97-126.03s78.82-65 126.03-84.97C292.05 11.48 343.97 1 397.5 1m0-1C177.97 0 0 177.97 0 397.5S177.97 795 397.5 795 795 617.03 795 397.5 617.03 0 397.5 0z"/><circle cx="397.5" cy="397.5" r="324.5" fill="#2d69c1"/><circle cx="407.56" cy="377.53" r="144.51" fill="#3a72cc"/></svg>